HIERARCHY
ROOT Hips
{
	OFFSET 0.000000 0.000000 0.000000
	CHANNELS 6 Xposition Yposition Zposition Xrotation Yrotation Zrotation
	JOINT LeftUpLeg_virtual
	{
		OFFSET 0.000000 0.000000 0.000000
		CHANNELS 3 Xrotation Yrotation Zrotation
		JOINT LeftUpLeg
		{
			OFFSET 13.026900 -6.336304 -1.092800
			CHANNELS 3 Xrotation Yrotation Zrotation
			JOINT LeftLeg
			{
				OFFSET 0.524474 -46.096886 9.782700
				CHANNELS 3 Xrotation Yrotation Zrotation
				JOINT LeftFoot
				{
					OFFSET -0.524474 -53.427422 -12.948200
					CHANNELS 3 Xrotation Yrotation Zrotation
					JOINT LeftToeBase
					{
						OFFSET 0.192200 -14.009700 16.364100
						CHANNELS 3 Xrotation Yrotation Zrotation
						JOINT LeftToe_End
						{
							OFFSET -1.784700 -0.561700 9.474800
							CHANNELS 3 Xrotation Yrotation Zrotation
							End Site
							{
								OFFSET 0 0 0
							}
						}
					}
				}
			}
		}
	}
	JOINT RightUpLeg_virtual
	{
		OFFSET 0.000000 0.000000 0.000000
		CHANNELS 3 Xrotation Yrotation Zrotation
		JOINT RightUpLeg
		{
			OFFSET -12.883000 -6.336304 -1.092800
			CHANNELS 3 Xrotation Yrotation Zrotation
			JOINT RightLeg
			{
				OFFSET -0.524587 -46.096825 9.782800
				CHANNELS 3 Xrotation Yrotation Zrotation
				JOINT RightFoot
				{
					OFFSET 0.524587 -53.427383 -12.948300
					CHANNELS 3 Xrotation Yrotation Zrotation
					JOINT RightToeBase
					{
						OFFSET -0.192200 -14.009700 16.364100
						CHANNELS 3 Xrotation Yrotation Zrotation
						JOINT RightToe_End
						{
							OFFSET 1.784700 -0.561700 9.474800
							CHANNELS 3 Xrotation Yrotation Zrotation
							End Site
							{
								OFFSET 0 0 0
							}
						}
					}
				}
			}
		}
	}
	JOINT Spine_virtual
	{
		OFFSET 0.000000 0.000000 0.000000
		CHANNELS 3 Xrotation Yrotation Zrotation
		JOINT Spine
		{
			OFFSET 0.072000 7.257294 -0.789700
			CHANNELS 3 Xrotation Yrotation Zrotation
			JOINT Spine1
			{
				OFFSET 0.000000 12.508769 -0.658067
				CHANNELS 3 Xrotation Yrotation Zrotation
				JOINT Spine1_split
				{
					OFFSET 0.000000 12.508769 -0.658067
					CHANNELS 3 Xrotation Yrotation Zrotation
					JOINT Spine2
					{
						OFFSET 0.000000 12.508769 -0.658067
						CHANNELS 3 Xrotation Yrotation Zrotation
						JOINT Neck_virtual
						{
							OFFSET 0.000000 0.000000 0.000000
							CHANNELS 3 Xrotation Yrotation Zrotation
							JOINT Neck
							{
								OFFSET 0.000000 14.033295 7.520400
								CHANNELS 3 Xrotation Yrotation Zrotation
								JOINT Head
								{
									OFFSET 0.000000 8.198502 5.703100
									CHANNELS 3 Xrotation Yrotation Zrotation
									JOINT HeadTop_End
									{
										OFFSET 0.000000 17.760803 13.332701
										CHANNELS 3 Xrotation Yrotation Zrotation
										End Site
										{
											OFFSET 0 0 0
										}
									}
								}
							}
						}
						JOINT LeftShoulder_virtual
						{
							OFFSET 0.000000 0.000000 0.000000
							CHANNELS 3 Xrotation Yrotation Zrotation
							JOINT LeftShoulder
							{
								OFFSET 6.292450 5.785301 -0.669000
								CHANNELS 3 Xrotation Yrotation Zrotation
								JOINT LeftShoulder_split
								{
									OFFSET 6.292450 5.785301 -0.669000
									CHANNELS 3 Xrotation Yrotation Zrotation
									JOINT LeftArm
									{
										OFFSET 13.907140 -6.093903 1.965100
										CHANNELS 3 Xrotation Yrotation Zrotation
										JOINT LeftForeArm
										{
											OFFSET 34.140198 0.000000 0.000000
											CHANNELS 3 Xrotation Yrotation Zrotation
											JOINT LeftHand
											{
												OFFSET 40.960209 0.000000 0.000000
												CHANNELS 3 Xrotation Yrotation Zrotation
												End Site
												{
													OFFSET 0 0 0
												}
											}
										}
									}
								}
							}
						}
						JOINT RightShoulder_virtual
						{
							OFFSET 0.000000 0.000000 0.000000
							CHANNELS 3 Xrotation Yrotation Zrotation
							JOINT RightShoulder
							{
								OFFSET -6.292450 5.785301 -0.669000
								CHANNELS 3 Xrotation Yrotation Zrotation
								JOINT RightShoulder_split
								{
									OFFSET -6.292450 5.785301 -0.669000
									CHANNELS 3 Xrotation Yrotation Zrotation
									JOINT RightArm
									{
										OFFSET -13.907140 -6.093903 1.965100
										CHANNELS 3 Xrotation Yrotation Zrotation
										JOINT RightForeArm
										{
											OFFSET -34.140198 0.000000 0.000000
											CHANNELS 3 Xrotation Yrotation Zrotation
											JOINT RightHand
											{
												OFFSET -40.960209 0.000000 0.000000
												CHANNELS 3 Xrotation Yrotation Zrotation
												End Site
												{
													OFFSET 0 0 0
												}
											}
										}
									}
								}
							}
						}
					}
				}
			}
		}
	}
}
MOTION
Frames: 10
Frame Time: 0.03333333
-1.733746 116.027092 -12.129292 0.000000 0.000000 0.000000 1.542393 -24.859860 0.396041 -20.851058 31.548388 17.626305 20.210501 5.594343 0.621161 -3.788369 6.049826 -16.109218 1.905750 -3.004625 -0.383806 0.000000 0.000000 0.000000 2.624056 -22.768968 0.505975 -12.898831 2.824562 -5.421594 12.526220 8.892601 -0.357594 -5.013225 -5.656312 16.713447 0.829279 2.135614 -7.423848 0.000000 0.000000 0.000000 0.025762 -18.016258 -0.437653 3.192137 -0.795684 -0.879930 2.758447 -3.119205 2.280885 0.062797 -0.304365 0.112734 0.000000 0.000000 0.000000 5.272411 0.044986 3.332034 -10.243048 26.381645 -2.963259 -20.304175 22.283835 -6.221873 0.000000 0.000000 0.000000 3.776620 -1.526975 2.648409 2.110382 -6.943255 -1.351063 7.458201 -1.770146 1.433996 -67.891493 -2.078966 -39.489719 7.019547 -58.668518 10.305341 0.000000 0.000000 0.000000 4.203356 -1.723829 2.986096 -2.684001 0.605858 2.721709 -2.169244 -5.586173 0.853932 -8.525237 -2.671799 69.912163 10.131361 16.231504 -1.529493 0.000000 0.000000 0.000000 
-1.601859 115.950645 -12.102421 0.000000 0.000000 0.000000 1.493782 -25.158387 0.514097 -21.023292 31.779917 17.546181 20.211160 5.925278 0.693987 -3.895855 5.939663 -15.891963 2.218835 -3.020288 -0.364214 0.000000 0.000000 0.000000 2.762746 -23.062748 0.648768 -13.119230 2.579589 -5.465951 12.860509 8.749057 -0.315134 -4.988883 -5.412126 16.769013 0.450767 2.150174 -7.250593 0.000000 0.000000 0.000000 0.001974 -18.354330 -0.375855 3.160123 -0.768851 -0.977667 2.610739 -3.074222 2.256367 0.065197 -0.241708 0.077344 0.000000 0.000000 0.000000 5.341265 0.111075 3.282896 -9.911693 26.448347 -3.046568 -20.739533 22.234241 -6.213828 0.000000 0.000000 0.000000 3.774184 -1.474870 2.667745 2.055029 -6.438497 -1.404275 7.017818 -1.888364 1.405903 -67.925145 -1.245375 -38.715927 6.672268 -58.168036 9.920579 0.000000 0.000000 0.000000 4.095008 -1.724186 2.954574 -2.727481 0.675390 2.904422 -1.745586 -5.508711 0.713878 -8.375224 -2.581067 69.524461 10.318322 16.344177 -1.552843 0.000000 0.000000 0.000000 
-1.275735 115.806969 -11.997387 0.000000 0.000000 0.000000 1.572305 -25.111284 0.638244 -21.353927 31.838080 17.445183 20.327237 6.369175 0.662363 -4.003519 5.609444 -15.272812 2.897719 -3.012539 -0.413536 0.000000 0.000000 0.000000 2.867746 -23.198160 0.799877 -13.146294 2.251836 -5.617731 13.540460 8.393581 -0.251513 -5.401944 -5.143766 16.661596 0.366714 2.198933 -6.880998 0.000000 0.000000 0.000000 0.085565 -18.449702 -0.313000 3.011773 -0.708359 -1.116773 2.453437 -2.859976 2.206104 0.065745 -0.218952 0.038632 0.000000 0.000000 0.000000 5.389625 0.340106 3.187149 -9.289724 26.399719 -3.236865 -21.528039 21.850296 -6.279486 0.000000 0.000000 0.000000 3.758107 -1.258642 2.623844 2.020877 -5.776517 -1.353463 6.686348 -2.323094 1.423217 -67.916894 0.335791 -37.434068 7.151120 -57.935577 10.190902 0.000000 0.000000 0.000000 4.030706 -1.564234 2.860788 -2.742922 0.939656 3.355254 -1.432866 -5.333561 0.548414 -7.927640 -2.429062 68.790455 10.609203 16.851882 -1.505692 0.000000 0.000000 0.000000 
-0.777017 115.607826 -11.862156 0.000000 0.000000 0.000000 1.783580 -24.669151 0.778342 -21.795088 31.716506 17.347040 20.554566 6.868521 0.513768 -4.027485 5.031055 -14.360797 3.556500 -2.982343 -0.473699 0.000000 0.000000 0.000000 2.959494 -23.216841 0.941815 -13.020408 1.915537 -5.913121 14.155979 7.931163 -0.179417 -6.235469 -4.829530 16.609449 0.790383 2.290543 -6.531424 0.000000 0.000000 0.000000 0.293060 -18.234303 -0.221659 2.757763 -0.629402 -1.246429 2.314033 -2.485864 2.129291 0.056545 -0.236961 0.029788 0.000000 0.000000 0.000000 5.408437 0.712128 3.061143 -8.468888 26.213429 -3.500313 -22.620463 21.007708 -6.453500 0.000000 0.000000 0.000000 3.757375 -0.880361 2.516863 2.011308 -4.932524 -1.205156 6.550951 -2.979629 1.509272 -67.808042 2.519113 -35.801072 8.355725 -57.961163 10.996480 0.000000 0.000000 0.000000 4.038511 -1.241228 2.712781 -2.714206 1.354092 4.016001 -1.260331 -5.125468 0.444884 -7.162277 -2.368099 67.802270 10.937509 17.620175 -1.367595 0.000000 0.000000 0.000000 
-0.182875 115.408356 -11.704792 0.000000 0.000000 0.000000 2.133152 -23.837635 0.937566 -22.269661 31.447256 17.162389 20.822112 7.507289 0.264693 -4.106452 4.288210 -12.975884 4.019144 -2.934032 -0.557203 0.000000 0.000000 0.000000 3.142492 -22.956257 1.082595 -12.801906 1.542826 -6.424855 14.546116 7.565842 -0.116096 -7.144085 -4.365672 17.207574 1.327048 2.465975 -6.445691 0.000000 0.000000 0.000000 0.669836 -17.705730 -0.048391 2.411112 -0.562737 -1.329514 2.202987 -1.974741 2.029816 0.049663 -0.257345 0.034683 0.000000 0.000000 0.000000 5.408949 1.209659 2.910927 -7.571752 25.861920 -3.812563 -23.863549 19.724876 -6.766781 0.000000 0.000000 0.000000 3.794053 -0.350227 2.369384 2.037383 -3.857651 -0.978304 6.754117 -3.789424 1.740234 -67.560420 5.103020 -33.959677 10.117976 -58.264232 12.155235 0.000000 0.000000 0.000000 4.133464 -0.772069 2.522891 -2.639683 1.877642 4.818423 -1.221015 -4.873996 0.525031 -6.169528 -2.625692 66.662988 11.223873 18.511802 -1.126882 0.000000 0.000000 0.000000 
0.448406 115.162453 -11.496540 0.000000 0.000000 0.000000 2.564750 -22.606584 1.103493 -22.775448 31.071586 16.884030 21.134907 8.260123 -0.077533 -4.346019 3.447148 -11.156831 4.406047 -2.860167 -0.738290 0.000000 0.000000 0.000000 3.366387 -22.073119 1.186454 -12.557990 1.115958 -7.133832 14.801797 7.403397 -0.071789 -7.772006 -3.798868 18.635382 1.601180 2.738387 -6.776289 0.000000 0.000000 0.000000 1.100282 -16.820843 0.204940 2.045109 -0.529133 -1.340159 2.111691 -1.353098 1.911067 0.067266 -0.229700 0.043077 0.000000 0.000000 0.000000 5.407398 1.803899 2.742536 -6.731256 25.366160 -4.130794 -25.128512 18.143807 -7.245220 0.000000 0.000000 0.000000 3.886733 0.300183 2.199523 2.097099 -2.515769 -0.675737 7.150094 -4.724932 1.997376 -67.247297 7.862711 -32.059258 12.177099 -58.891817 13.444169 0.000000 0.000000 0.000000 4.319056 -0.184899 2.297521 -2.531964 2.501700 5.663219 -1.344626 -4.608833 0.755741 -5.023963 -3.400306 65.450349 11.406938 19.353597 -0.797449 0.000000 0.000000 0.000000 
1.087127 114.814865 -11.268673 0.000000 0.000000 0.000000 2.959126 -21.134485 1.274985 -23.344810 30.655805 16.570109 21.570743 9.025206 -0.489987 -4.689550 2.496675 -9.207203 4.787309 -2.744195 -1.013636 0.000000 0.000000 0.000000 3.584616 -20.484723 1.266075 -12.419302 0.557593 -7.952940 15.380403 7.345907 -0.059067 -8.182687 -3.403692 20.299199 1.657199 3.075605 -7.472638 0.000000 0.000000 0.000000 1.466454 -15.551128 0.472919 1.725469 -0.511510 -1.269623 2.037243 -0.643217 1.777158 0.095387 -0.172027 0.058253 0.000000 0.000000 0.000000 5.434785 2.457578 2.559303 -6.017238 24.755556 -4.455183 -26.294101 16.432638 -7.923352 0.000000 0.000000 0.000000 4.008373 1.028936 2.014449 2.189398 -0.934667 -0.314017 7.677834 -5.707094 2.317665 -67.005986 10.624343 -30.081222 14.416504 -59.919508 14.760237 0.000000 0.000000 0.000000 4.539371 0.472974 2.044492 -2.414412 3.234530 6.480926 -1.640625 -4.345649 1.006684 -3.847963 -4.687325 64.303164 11.461011 19.996858 -0.432537 0.000000 0.000000 0.000000 
1.756924 114.238701 -11.024876 0.000000 0.000000 0.000000 3.291675 -19.445362 1.490040 -23.994702 30.334400 16.207972 22.221255 9.679509 -0.977264 -5.082906 1.470917 -7.340952 5.042916 -2.581810 -1.285608 0.000000 0.000000 0.000000 3.695100 -18.420069 1.381407 -12.740366 -0.152290 -8.801280 16.839990 7.188334 -0.065272 -8.479880 -3.410484 21.442947 1.397002 3.411275 -8.344305 0.000000 0.000000 0.000000 1.678501 -13.894559 0.755800 1.516009 -0.492964 -1.143315 1.978877 0.111185 1.623556 0.099087 -0.105722 0.064811 0.000000 0.000000 0.000000 5.500761 3.123486 2.365424 -5.495144 24.032806 -4.768713 -27.206781 14.707996 -8.831429 0.000000 0.000000 0.000000 4.119334 1.781235 1.826900 2.297637 0.818587 0.077264 8.280494 -6.856736 2.636663 -66.943524 13.257557 -27.977145 16.793407 -61.458807 16.097226 0.000000 0.000000 0.000000 4.742661 1.148532 1.780825 -2.311925 4.015930 7.202670 -2.043550 -3.995174 1.198529 -2.759230 -6.284104 63.264053 11.398689 20.384392 -0.106885 0.000000 0.000000 0.000000 
2.479869 113.388885 -10.577282 0.000000 0.000000 0.000000 3.369808 -17.516818 1.754782 -24.717795 30.115148 15.806033 23.239476 10.048090 -1.494328 -5.516958 0.350866 -5.832035 5.089825 -2.368593 -1.447837 0.000000 0.000000 0.000000 3.398651 -16.171484 1.524435 -13.791055 -0.913409 -9.652202 19.922180 6.711316 -0.030899 -8.423792 -3.986987 21.139060 1.006103 3.673563 -9.120178 0.000000 0.000000 0.000000 1.597147 -11.654759 1.065502 1.534712 -0.462650 -1.004938 1.925949 0.842383 1.458161 0.086984 -0.055332 0.063671 0.000000 0.000000 0.000000 5.573440 3.749210 2.165387 -5.251193 23.208571 -5.039820 -27.844730 13.012558 -9.935705 0.000000 0.000000 0.000000 4.174833 2.497214 1.633653 2.390102 2.681620 0.426764 8.797609 -7.808978 2.819696 -67.128486 15.754253 -25.689825 19.221464 -63.394968 17.433679 0.000000 0.000000 0.000000 4.877227 1.791239 1.520546 -2.243858 4.786243 7.779587 -2.552065 -3.695639 1.365689 -1.775022 -7.797644 62.408538 11.250620 20.479607 0.085499 0.000000 0.000000 0.000000 
3.204473 112.256905 -10.091679 0.000000 0.000000 0.000000 3.080722 -15.342884 2.069252 -25.534654 29.790912 15.295961 24.763377 10.095218 -1.968713 -5.961059 -0.865962 -4.769363 5.095523 -2.109740 -1.503931 0.000000 0.000000 0.000000 2.750700 -13.692415 1.801468 -15.817116 -1.630673 -10.596810 24.782474 6.022261 0.092053 -7.496377 -5.050604 19.431033 0.079789 3.827947 -9.617502 0.000000 0.000000 0.000000 1.185905 -8.865544 1.396430 1.825977 -0.416757 -0.887445 1.847612 1.495373 1.299786 0.067156 -0.050092 0.047390 0.000000 0.000000 0.000000 5.617817 4.306947 1.970538 -5.303240 22.304703 -5.277860 -28.201069 11.308725 -11.159734 0.000000 0.000000 0.000000 4.147479 3.134452 1.442686 2.458591 4.572552 0.661863 9.278560 -8.501781 2.914637 -67.547723 18.187269 -23.153814 21.669199 -65.504731 18.791235 0.000000 0.000000 0.000000 4.910848 2.371646 1.289337 -2.194488 5.488962 8.236315 -3.099869 -3.403047 1.435732 -0.886951 -8.832001 61.789566 11.054331 20.361383 0.063865 0.000000 0.000000 0.000000 
